<svg id="Layer_1" data-name="Layer 1" xmlns="http://www.w3.org/2000/svg" viewBox="0 0 330 90"><defs><style>.cls-1{fill:#fff;}.cls-2{fill:#5f249f;}</style></defs><circle class="cls-1" cx="50.34" cy="44.92" r="42.42"/><path class="cls-2" d="M54.5,54.16a13.14,13.14,0,0,1-4.71.94c-3.88,0-5.62-1.94-5.62-6.29V37.36H54.5Zm15-20.38a3,3,0,0,0-3-3H60.9l-13-15A4.71,4.71,0,0,0,43,14.36l-4.5,1.33a.94.94,0,0,0-.37,1.58L52.27,30.82H30.57a1.11,1.11,0,0,0-1.13,1.11V34.4a3,3,0,0,0,3,3h3.31V48.83c0,8.54,4.55,13.65,12.19,13.65a16.93,16.93,0,0,0,6.56-1.17v7.63a3.75,3.75,0,0,0,3.74,3.76h3.3A1.41,1.41,0,0,0,63,71.29h0V37.36h5.44a1.12,1.12,0,0,0,1.11-1.13Z"/><path class="cls-1" d="M284,42.65c0-3.74-2.51-5.63-6.22-5.63a11.27,11.27,0,0,0-3.68.65V53.3a6.83,6.83,0,0,0,3.74,1c3.66,0,6.16-2,6.16-5.61Zm8.5,6c0,7.68-5.74,12.84-13.27,12.84a13.83,13.83,0,0,1-5.13-.89V71.26a1.4,1.4,0,0,1-1.39,1.41h-5.57a1.41,1.41,0,0,1-1.41-1.41h0V33.54a2.15,2.15,0,0,1,1.43-2,33.9,33.9,0,0,1,10.88-1.92c8.51,0,14.49,5.17,14.49,13.2Zm-161.78-6c0-3.74-2.52-5.63-6.23-5.63a11.21,11.21,0,0,0-3.67.65V53.3a6.74,6.74,0,0,0,3.74,1c3.66,0,6.16-2,6.16-5.61Zm8.49,6c0,7.68-5.74,12.84-13.26,12.84a13.83,13.83,0,0,1-5.13-.89V71.26a1.41,1.41,0,0,1-1.36,1.41h-5.6a1.42,1.42,0,0,1-1.4-1.41V33.54a2.12,2.12,0,0,1,1.42-2,34,34,0,0,1,10.89-1.92c8.51,0,14.49,5.17,14.49,13.2Zm52.91,4.09c0-3-1.75-4.64-4.82-4.64s-4.84,1.73-4.84,4.68v8.86c0,2.92,1.71,4.53,4.82,4.53s4.82-1.61,4.82-4.53Zm8.37,0V61.6c0,7.26-5.06,11.78-13.19,11.78s-13.23-4.51-13.23-11.78V52.78c0-7.36,5.06-12,13.23-12s13.16,4.64,13.16,12Zm-35.81,19.9h3.36a1.4,1.4,0,0,0,1.42-1.37V53.68c0-8-4.3-12.85-11.5-12.85a16.4,16.4,0,0,0-5.89,1V33.14a3.53,3.53,0,0,0-3.52-3.54h-3.32a1.41,1.41,0,0,0-1.42,1.4h0V71.26a1.41,1.41,0,0,0,1.41,1.41h5.43a1.41,1.41,0,0,0,1.41-1.41h0V48.87a11,11,0,0,1,4.08-.79c3.44,0,5,1.73,5,5.61V69.15a3.56,3.56,0,0,0,3.54,3.53Zm139.57-18h9.07V52.27c0-3-1.66-4.65-4.54-4.65s-4.53,1.66-4.53,4.65v2.38Zm.18,5.2h-.18V62c0,2.88,1.83,4.53,5,4.53a13.88,13.88,0,0,0,6.89-1.84,1.4,1.4,0,0,1,.75-.17,1.39,1.39,0,0,1,1,.5l.83,1a3.59,3.59,0,0,1,.93,2.46A3.31,3.31,0,0,1,318,71.31,18.59,18.59,0,0,1,309,73.42a14.53,14.53,0,0,1-9.26-2.88,10.73,10.73,0,0,1-3.8-8.66v-9.2c0-7.42,4.82-11.83,12.91-11.83,7.88,0,12.38,4.32,12.38,11.83v5.77a1.4,1.4,0,0,1-1.39,1.41H304.5Zm-60.57-5.2H253V52.27c0-3-1.66-4.65-4.54-4.65s-4.54,1.66-4.54,4.65v2.38Zm.19,5.2h-.19V62c0,2.88,1.84,4.53,5,4.53a13.85,13.85,0,0,0,6.88-1.84,1.54,1.54,0,0,1,.76-.17,1.39,1.39,0,0,1,1,.5l.83,1a3.54,3.54,0,0,1,.92,2.46,3.28,3.28,0,0,1-1.73,2.83,18.59,18.59,0,0,1-8.95,2.11,14.46,14.46,0,0,1-9.26-2.88,10.73,10.73,0,0,1-3.8-8.66v-9.2c0-7.42,4.82-11.83,12.9-11.83,7.89,0,12.39,4.32,12.39,11.83v5.77a1.4,1.4,0,0,1-1.39,1.41H244Zm-21.41,9.3V53.74c0-3.88-1.52-5.6-4.93-5.6a14.23,14.23,0,0,0-4.15.56V71.27a1.39,1.39,0,0,1-1.37,1.41h-5.46a1.4,1.4,0,0,1-1.41-1.39V44.84a2.18,2.18,0,0,1,1.36-2,32.82,32.82,0,0,1,11-2c8.54,0,13.23,4.58,13.23,12.9V71.27a1.39,1.39,0,0,1-1.37,1.41h-3.4a3.53,3.53,0,0,1-3.5-3.53Z"/></svg>